Coordinates
version=1
nRows=15
nColumns=42
inDegrees=yes

Units are S.I. units (second, meters, Newtons, ...)
If the header above contains a line with 'inDegrees', this indicates whether rotational values are in degrees (yes) or radians (no).

endheader
time	pelvis_tilt	pelvis_list	pelvis_rotation	pelvis_tx	pelvis_ty	pelvis_tz	hip_flexion_r	hip_adduction_r	hip_rotation_r	knee_angle_r	knee_angle_r_beta	ankle_angle_r	subtalar_angle_r	mtp_angle_r	hip_flexion_l	hip_adduction_l	hip_rotation_l	knee_angle_l	knee_angle_l_beta	ankle_angle_l	subtalar_angle_l	mtp_angle_l	lumbar_extension	lumbar_bending	lumbar_rotation	sh_tx_r	sh_ty_r	sh_tz_r	sh_plane_elev_r	sh_elev_r	sh_axial_rot_r	elbow_flex_r	pro_sup_r	sh_tx_l	sh_ty_l	sh_tz_l	sh_plane_elev_l	sh_elev_l	sh_axial_rot_l	elbow_flex_l	pro_sup_l
      4.98333330	     -9.75138094	     -0.04855244	      1.94603611	      0.26691364	      0.94397870	     -0.06776664	      6.41526949	     -7.95103785	     -7.83600114	      0.33868846	      0.00591123	      3.06736031	     -0.11669421	     -7.49999987	      6.74180232	     -3.75831098	     -9.04007541	      1.75805315	      0.03068382	      8.41752752	      4.81982585	     -7.49999987	      5.25593793	      6.01242436	      2.89891148	     -0.02109998	     -0.01020586	     -0.00742578	    -28.87657380	      4.84278192	      2.41873008	     38.15149269	    111.14240540	     -0.02535910	      0.01380602	     -0.00741333	     27.12962803	    109.46337411	     14.88624121	     11.60153389	      2.81716303
      5.00000000	     -9.75225006	     -0.08767909	      1.92061023	      0.26680147	      0.94393399	     -0.06782456	      6.45740115	     -7.93440352	     -7.86718161	      0.33253218	      0.00580378	      3.02587883	     -0.16594847	     -7.49999987	      6.75318411	     -3.80761118	     -9.10415874	      1.75400348	      0.03061314	      8.40977559	      4.74298179	     -7.49999987	      5.25095269	      6.13492352	      3.15762798	     -0.02164959	     -0.01050313	     -0.00742929	    -29.78676665	      4.79787006	      2.72433674	     38.21273896	    111.84569860	     -0.02523005	      0.01328322	     -0.00745161	     27.44190806	    109.35012935	     15.27385939	     11.03914181	      2.93910540
      5.01666670	     -9.72359565	     -0.10666079	      1.94793842	      0.26668782	      0.94356257	     -0.06787876	      6.46740466	     -7.92623392	     -7.70859358	      0.32394248	      0.00565386	      2.82617892	     -0.56363791	     -7.49999987	      6.74107293	     -3.83278626	     -9.08257529	      1.74356356	      0.03043092	      8.38484490	      4.66760603	     -7.49999987	      5.16200574	      6.19191330	      3.15245382	     -0.02194748	     -0.01066927	     -0.00745309	    -29.63008162	      4.72762303	      2.26253193	     38.20591069	    111.26406890	     -0.02552114	      0.01270329	     -0.00745950	     27.47289156	    109.42934856	     15.06092324	     10.85757751	      2.89441352
      5.03333330	     -9.73159668	     -0.14549788	      1.99000987	      0.26668717	      0.94356737	     -0.06793943	      6.49164544	     -7.89973206	     -7.89078225	      0.32153048	      0.00561177	      2.88123485	     -0.15629097	     -7.49999987	      6.77515422	     -3.88085346	     -9.11738902	      1.76621772	      0.03082631	      8.47542179	      4.72045437	     -7.49999987	      5.23559198	      6.22312516	      3.09812632	     -0.02163099	     -0.01100208	     -0.00745770	    -29.44540145	      4.81543489	      2.45632488	     38.02449817	    111.05026415	     -0.02595443	      0.01250600	     -0.00746387	     27.68320055	    109.39449143	     14.66035311	     10.56140704	      2.86571003
      5.05000000	     -9.65348504	     -0.14474285	      2.06565202	      0.26660655	      0.94328819	     -0.06795461	      6.39901941	     -7.89054404	     -7.91739267	      0.31973892	      0.00558050	      2.82527702	     -0.15869102	     -7.49999987	      6.69508230	     -3.87133011	     -8.95826507	      1.74965532	      0.03053725	      8.43292222	      4.55515702	     -7.49999987	      5.05358748	      6.23702547	      3.09024677	     -0.02210830	     -0.01106019	     -0.00746286	    -29.37386278	      4.77126265	      2.14899658	     38.16558023	    110.48961682	     -0.02635989	      0.01159869	     -0.00753523	     27.41602589	    109.70933174	     14.70645427	     11.01762212	      2.82061784
      5.06666670	     -9.66723643	     -0.16387937	      2.05274126	      0.26670967	      0.94022527	     -0.06807177	      6.40199901	     -7.88021737	     -7.97334187	      0.34279876	      0.00598297	      2.88288374	     -0.19920196	     -7.49999987	      6.71435551	     -3.88017044	     -8.99250925	      1.74194678	      0.03040271	      8.49606624	      4.53605143	     -7.49999987	      5.06988328	      6.26079306	      3.11458444	     -0.02216345	     -0.01040079	     -0.00741320	    -29.35453753	      4.72876175	      2.17479208	     38.16912236	    110.48240768	     -0.02609302	      0.01231136	     -0.00745130	     27.39936368	    109.72555865	     14.69737565	     11.02368056	      2.89093139
      5.08333330	     -9.71903140	     -0.16589829	      2.12717492	      0.26685816	      0.94009564	     -0.06816512	      6.42504309	     -7.87446229	     -7.99882653	      0.33662397	      0.00587520	      2.90264621	     -0.30721308	     -7.49999987	      6.81494243	     -3.86711997	     -9.02303697	      1.82798321	      0.03190433	      8.78021117	      4.87052661	     -7.49999987	      5.16012157	      6.19600093	      2.68859907	     -0.02137663	     -0.01013445	     -0.00745052	    -29.33891199	      4.83985115	      2.66909685	     38.67287291	    111.12686123	     -0.02581310	      0.01212686	     -0.00745782	     26.98066833	    110.03893574	     14.05910713	     11.17682550	      2.88768623
      5.10000000	     -9.66660822	     -0.17021584	      2.16549811	      0.26686870	      0.94039857	     -0.06823792	      6.34335185	     -7.86508882	     -8.04662595	      0.33702650	      0.00588222	      3.05520301	     -0.25105616	     -7.49999987	      6.75612490	     -3.85590644	     -8.89627407	      1.80776475	      0.03155145	      8.77787248	      4.77527550	     -7.49999987	      4.98608808	      6.20907691	      2.52247409	     -0.02157490	     -0.00953016	     -0.00743693	    -29.23675636	      4.77041038	      2.45069422	     38.99967588	    110.39930636	     -0.02555233	      0.01192267	     -0.00745798	     26.50024445	    110.27604717	     13.93877416	     11.59668847	      2.86416710
      5.11666670	     -9.80796347	     -0.20658641	      2.20253670	      0.26697315	      0.94010142	     -0.06827339	      6.47885678	     -7.82106989	     -8.07085501	      0.34563682	      0.00603250	      3.09723342	     -0.32802715	     -7.49999987	      6.95317446	     -3.88982060	     -9.06034107	      1.86643653	      0.03257546	      8.93437670	      5.17430867	     -7.49999987	      5.26271421	      6.17105650	      2.37105041	     -0.02110576	     -0.00924050	     -0.00743733	    -29.10787361	      4.84983757	      2.76277861	     38.82025627	    110.49809521	     -0.02547926	      0.01213032	     -0.00744832	     26.64360896	    110.27054839	     13.77256978	     11.44865033	      2.85710006
      5.13333330	    -10.21960601	     -0.19865867	      2.22006461	      0.26708494	      0.93978375	     -0.06827354	      6.92089603	     -7.84146209	     -8.04147741	      0.36154527	      0.00631016	      3.08042705	     -0.44743798	     -7.49999987	      7.40834380	     -3.84588072	     -8.75555789	      1.85165312	      0.03231744	      8.81329893	      4.79410979	     -7.49999987	      5.66609160	      6.10369283	      1.84577402	     -0.02103358	     -0.00978375	     -0.00741033	    -28.49502169	      4.83174447	      2.87516275	     39.34327507	    108.16776587	     -0.02538306	      0.01107690	     -0.00746375	     25.51384131	    110.67285691	     13.30817751	     12.74646361	      4.22325296
      5.15000000	     -9.78699977	     -0.20538503	      2.23525286	      0.26713082	      0.94639886	     -0.06845514	      6.42306337	     -7.80751187	     -8.07417595	      0.35446563	      0.00618659	      3.14815444	     -0.29402936	     -7.49999987	      6.93037031	     -3.88145495	     -8.99661160	      1.82347314	      0.03182561	      8.89691845	      5.30111623	     -7.49999987	      5.28615147	      6.33076819	      1.92919450	     -0.01951413	     -0.00909992	     -0.00746289	    -28.65871915	      4.87662522	      2.73382336	     38.66720714	    109.46441422	     -0.02532281	      0.01368452	     -0.00742315	     26.26107967	    109.40844703	     13.34657480	     11.66165268	      2.79140233
      5.16666670	     -9.79765801	     -0.20176690	      2.22573538	      0.26714908	      0.94320590	     -0.06844269	      6.44422741	     -7.80685983	     -8.09965262	      0.37101788	      0.00647548	      3.19095260	     -0.31267599	     -7.49999987	      6.93670033	     -3.87235079	     -9.00715999	      1.81601791	      0.03169549	      8.92628554	      5.28702181	     -7.49999987	      5.27002293	      6.37806080	      1.98107768	     -0.01978228	     -0.00940549	     -0.00742504	    -28.64423313	      4.81373670	      2.75485682	     38.62810750	    109.47055906	     -0.02607644	      0.01310428	     -0.00747192	     26.24483838	    109.37652207	     13.34182780	     11.65816082	      2.86171345
      5.18333330	     -9.75494947	     -0.17976742	      2.18258407	      0.26710654	      0.94594495	     -0.06831287	      6.41636805	     -7.83192185	     -8.07358535	      0.34709358	      0.00605793	      3.11259229	     -0.09395145	     -7.49999987	      6.86749269	     -3.85158778	     -9.12052846	      1.78450156	      0.03114543	      8.79828685	      5.39360337	     -7.49999987	      5.25313198	      6.51214752	      1.94337037	     -0.01936305	     -0.00969846	     -0.00749866	    -28.65966971	      4.89040253	      2.67227538	     38.59007443	    108.87259169	     -0.02649705	      0.01341183	     -0.00747941	     26.61048486	    108.91256542	     12.81516276	     10.63749354	      2.74775656
      5.20000000	     -9.69111420	     -0.16391959	      2.12201738	      0.26704539	      0.94585647	     -0.06833773	      6.38960937	     -7.85691314	     -8.02346722	      0.34096135	      0.00595090	      3.06379990	     -0.05130269	     -7.49999987	      6.76836889	     -3.83058201	     -9.10620704	      1.74017554	      0.03037179	      8.69612749	      5.32888444	     -7.49999987	      5.16829207	      6.37974340	      2.78750431	     -0.02161209	     -0.01037653	     -0.00746813	    -28.85214901	      4.86334714	      2.43493302	     37.76098424	    111.18082776	     -0.02532713	      0.01421812	     -0.00741076	     27.95545819	    108.81149176	     12.67422260	     10.16810629	      2.88589587
      5.21666670	     -9.69730037	     -0.16993962	      2.09086682	      0.26708770	      0.94246837	     -0.06845275	      6.40834727	     -7.87633016	     -8.06809860	      0.35384080	      0.00617569	      3.09938034	     -0.07818100	     -7.49999987	      6.76152016	     -3.82112270	     -9.13282880	      1.71959528	      0.03001260	      8.72760113	      5.31366000	     -7.49999987	      5.16412085	      6.49499575	      2.82886398	     -0.02237350	     -0.01081779	     -0.00748665	    -28.84261018	      4.77090870	      2.46442281	     37.70202129	    111.18159422	     -0.02594779	      0.01471455	     -0.00737840	     27.91268657	    108.86080929	     12.66956234	     10.14871990	      2.93733961
